<svg xmlns="http://www.w3.org/2000/svg" height="512" viewBox="0 0 48 58" width="512">
    <g id="Page-1" fill="none" fill-rule="evenodd">
        <g id="017---Veterinarian" fill-rule="nonzero">
            <path id="Shape"
                d="m32 40-8 10-8-10c1.2081139-.9044715 2.0750312-2.1907513 2.46-3.65.2674657-.8685879.4384959-1.7639813.51-2.67v-.01h10.06v.01c.0716825.8986371.2393031 1.787026.5 2.65.3840773 1.4676994 1.2549025 2.7615976 2.47 3.67z"
                fill="#fdd7ad"></path>
            <path id="Shape"
                d="m47.85 56.87c.0373904.2851752-.0498177.5726424-.2393496.7889769-.189532.2163344-.4630348.3405877-.7506504.3410231h-24.86l2-12 8-6 8.49 1.82c3.3029478.7054444 5.8052782 3.411965 6.25 6.76z"
                fill="#65ddb9"></path>
            <path id="Shape"
                d="m24 46v12h-22.86c-.28761563-.0004354-.56111843-.1246887-.75065036-.3410231-.18953194-.2163345-.27674004-.5038017-.23934964-.7889769l1.11-8.29c.44472178-3.348035 2.94705222-6.0545556 6.25-6.76l8.49-1.82z"
                fill="#26b99a"></path>
            <path id="Shape"
                d="m29.53 36.33c-1.6221151 1.1238022-3.5569982 1.708116-5.53 1.67-1.9734895.0407514-3.9103973-.5361254-5.54-1.65.2674657-.8685879.4384959-1.7639813.51-2.67v-.01h10.06v.01c.0716825.8986371.2393031 1.787026.5 2.65z"
                fill="#f9c795"></path>
            <path id="Shape"
                d="m39 50h-2v-2c0-.5522847-.4477153-1-1-1s-1 .4477153-1 1v2h-2c-.5522847 0-1 .4477153-1 1s.4477153 1 1 1h2v2c0 .5522847.4477153 1 1 1s1-.4477153 1-1v-2h2c.5522847 0 1-.4477153 1-1s-.4477153-1-1-1z"
                fill="#e64c3c"></path>
            <g fill="#3f5c6c">
                <path id="Shape"
                    d="m14 52.4c0 1.325-.895 1.6-2 1.6s-2-.275-2-1.6c-.09982599-1.2116895.7901729-2.2796881 2-2.4 1.2098271.1203119 2.099826 1.1883105 2 2.4z">
                </path>
                <circle id="Oval" cx="10" cy="47" r="1"></circle>
                <circle id="Oval" cx="8" cy="49" r="1"></circle>
                <circle id="Oval" cx="14" cy="47" r="1"></circle>
                <circle id="Oval" cx="16" cy="49" r="1"></circle>
            </g>
            <path id="Shape"
                d="m10 16c-.44623237-1.2885818-.69570093-2.6370605-.74-4l.07-4c.20223419-2.84893662 1.1206257-5.6006714 2.67-8 0 0 2 2 7 1s12.88-2.12 17 2c1.2794136 1.41169121 2.1626215 3.13670682 2.56 5l.48 4c.01696 1.4729294-.2337768 2.9366899-.74 4.32-.0878649.2318286-.1880065.4588163-.3.68z"
                fill="#cb8252"></path>
            <path id="Shape"
                d="m35.99 15.67c1.18-.23 3.01-.05 3.01 3.33 0 4.22-2.14 4.88-4.01 4.98h-21.98c-1.87-.1-4.01-.76-4.01-4.98 0-3.38 1.83-3.56 3.01-3.33z"
                fill="#f9c795"></path>
            <path id="Shape"
                d="m35.27 12c.3372595.9747814.5816786 1.9792436.73 3 0 9.211-2.751 20-12 20-11 0-12-15-12-20 .1483214-1.0207564.3927405-2.0252186.73-3z"
                fill="#fdd7ad"></path>
            <path id="Shape"
                d="m9 8c-.55228475 0-1 .44771525-1 1v2c0 .5522847.44771525 1 1 1h30.04c.5366039-.0214812.9604298-.4629665.96-1v-2c0-.55228475-.4477153-1-1-1z"
                fill="#65ddb9"></path>
            <circle id="Oval" cx="28" cy="10" fill="#95a5a5" r="4"></circle>
        </g>
    </g>
</svg>