<svg xmlns="http://www.w3.org/2000/svg" id="Layer_1" height="512" viewBox="0 0 511.114 511.114" width="512">
    <g>
        <path
            d="m448.357 248.807c0 64.25-67.74 64.25-90 64.25h-15l-7.803-96.639 7.803-73.361c23.36 0 45.31 9.09 61.82 25.61l17.05 17.04c16.85 16.85 26.13 39.27 26.13 63.1z"
            fill="#99481f"></path>
        <path
            d="m343.357 143.057v170h-16.5v-15l-61.3-15.88-10.41 10.8c-11.14-10.74-16.79-25.6-16.79-44.17 0-23.83 9.29-46.25 26.14-63.1l17.05-17.04c16.51-16.52 38.46-25.61 61.81-25.61z"
            fill="#b36b24"></path>
        <path d="m388.357 63.057c0 27.57-20.18 50-45 50l-7.803-47.802 7.803-52.198c24.82 0 45 22.43 45 50z"
            fill="#99481f"></path>
        <path d="m343.357 13.057v100c-24.81 0-45-22.43-45-50s20.19-50 45-50z" fill="#b36b24"></path>
        <path
            d="m270.61 114.198c-.942-12.249-6.496-24.029-15.636-33.169-9.141-9.141-20.921-14.694-33.17-15.637-12.925-.995-25.322 3.417-34.006 12.101-8.685 8.685-13.095 21.079-12.101 34.006.942 12.249 6.496 24.029 15.636 33.169 10.421 10.421 23.881 15.725 36.835 15.725 11.278 0 22.174-4.021 30.341-12.188 8.685-8.685 13.095-21.08 12.101-34.007z"
            fill="#b36b24"></path>
        <path
            d="m495.387 144.667c-10.42 10.42-23.88 15.73-36.83 15.73-11.28 0-22.17-4.02-30.34-12.19-17.55-17.55-15.96-47.68 3.53-67.18 9.14-9.14 20.92-14.69 33.17-15.63 12.94-1.01 25.32 3.41 34.01 12.1 17.54 17.54 15.96 47.68-3.54 67.17z"
            fill="#99481f"></path>
        <path
            d="m272.757 433.807c0 64.25-67.74 64.25-90 64.25h-15l-13.894-85 13.894-85c23.35 0 45.3 9.09 61.81 25.61l17.05 17.04c16.85 16.85 26.14 39.27 26.14 63.1z"
            fill="#ff884d"></path>
        <path
            d="m167.757 328.057v170h-16.51c-26.89 0-45.18-3.41-59.28-11.06-13.33-7.23-29.21-22.33-29.21-53.19 0-23.83 9.28-46.25 26.13-63.1l17.05-17.04c16.51-16.52 38.46-25.61 61.82-25.61z"
            fill="#ffc34d"></path>
        <path d="m212.757 248.057c0 27.57-20.19 50-45 50l-13.894-47.802 13.894-52.198c24.81 0 45 22.43 45 50z"
            fill="#ff884d"></path>
        <path d="m167.757 198.057v100c-24.82 0-45-22.43-45-50s20.18-50 45-50z" fill="#ffc34d"></path>
        <path
            d="m79.365 266.029c-9.141-9.141-20.921-14.694-33.17-15.637-12.927-.993-25.322 3.417-34.006 12.101-17.546 17.546-15.96 47.68 3.535 67.175 10.421 10.421 23.881 15.725 36.835 15.725 11.278 0 22.174-4.021 30.34-12.188 17.546-17.547 15.96-47.68-3.534-67.176z"
            fill="#ffc34d"></path>
        <path
            d="m323.316 262.493c-8.685-8.685-21.066-13.095-34.006-12.101-12.249.942-24.029 6.496-33.169 15.636-9.141 9.141-14.694 20.921-15.637 33.17-.994 12.927 3.416 25.321 12.101 34.007 8.168 8.167 19.061 12.188 30.341 12.188 12.952 0 26.415-5.305 36.834-15.724 9.141-9.141 14.694-20.921 15.637-33.17.994-12.927-3.416-25.321-12.101-34.006z"
            fill="#ff884d"></path>
    </g>
</svg>