<svg xmlns="http://www.w3.org/2000/svg" id="Capa_1" height="512" viewBox="0 0 497 497" width="512">
    <g>
        <path
            d="m384.218 344.491h-271.436c-20.367 36.305-34.66 93.271 32.701 140.125 11.706 8.143 25.687 12.384 39.947 12.384h126.14c14.26 0 28.241-4.241 39.947-12.384 67.361-46.854 53.068-103.82 32.701-140.125z"
            fill="#ffb25a"></path>
        <path
            d="m132.937 409.327c0-23.563 6.92-45.681 19.032-64.835h-39.188c-20.367 36.305-34.66 93.271 32.701 140.125 6.905 4.803 14.605 8.237 22.684 10.256-21.966-23.053-35.229-52.915-35.229-85.546z"
            fill="#ff9c20"></path>
        <path
            d="m384.218 344.491c-32.226 22.471-81.062 28.322-135.718 28.322s-103.492-5.851-135.718-28.322c12.324-21.969 26.867-36.371 26.867-36.371h217.703s14.542 14.402 26.866 36.371z"
            fill="#fc5c70"></path>
        <path
            d="m84.771.176c-12.567.501-23.406 8.97-27.105 20.991-8.925 29.004-18.342 86.821 19.343 147.509l124.401-130.879s-37.021-40.795-116.639-37.621z"
            fill="#ff8f00"></path>
        <path
            d="m179.413 64.414s.138.164.428.46c-1.204-1.23-26.888-26.738-82.257-26.738-.012 0-.023 0-.035 0-2.066 0-3.857 1.417-4.366 3.419-6.175 24.31-10.115 66.839 17.681 111.601z"
            fill="#ffbfc5"></path>
        <path
            d="m412.229.176c12.567.501 23.406 8.97 27.105 20.991 8.925 29.004 18.342 86.821-19.343 147.509l-124.402-130.879s37.022-40.795 116.64-37.621z"
            fill="#ff9c20"></path>
        <path
            d="m317.587 64.414s-.138.164-.428.46c1.204-1.23 26.888-26.738 82.257-26.738h.035c2.066 0 3.857 1.417 4.365 3.419 6.175 24.31 10.115 66.839-17.681 111.601z"
            fill="#ffbfc5"></path>
        <path
            d="m185.823 308.12h-46.174s-14.542 14.402-26.867 36.371c9.075 6.328 19.468 11.337 30.937 15.27 9.153-20.17 23.723-37.861 42.104-51.641z"
            fill="#f8485e"></path>
        <path
            d="m418.813 246.679c-19.32 62.756-88.247 75.953-170.313 75.953s-150.993-13.197-170.313-75.953l150.532-214.171c6.493-.733 13.097-1.104 19.781-1.104s13.288.371 19.781 1.104z"
            fill="#fde9b6"></path>
        <path
            d="m118.574 197.395c0-2.847.081-5.676.221-8.491l-40.608 57.775c12.937 42.022 48.119 61.821 94.593 70.318-33.631-29.758-54.206-70.898-54.206-119.602z"
            fill="#f9d888"></path>
        <path
            d="m78.187 246.679c-3.533-11.451-5.409-24.568-5.409-39.552 0-90.365 68.205-164.793 155.941-174.618 0-.001 30.67 214.17-150.532 214.17z"
            fill="#ffb25a"></path>
        <path
            d="m268.279 205.803c0 6.245-8.855 11.308-19.779 11.308s-19.779-5.063-19.779-11.308 8.855-6.308 19.779-6.308 19.779.063 19.779 6.308z"
            fill="#423e4f"></path>
        <path
            d="m424.222 207.127c0 14.984-1.877 28.101-5.409 39.552-181.202 0-150.532-214.171-150.532-214.171 87.736 9.826 155.941 84.254 155.941 174.619z"
            fill="#ffb25a"></path>
        <circle cx="248.5" cy="372.813" fill="#f9d888" r="24.099"></circle>
        <path d="m248.5 426.546c-4.143 0-7.5 3.357-7.5 7.5v62.954h15v-62.954c0-4.142-3.358-7.5-7.5-7.5z" fill="#ff9c20">
        </path>
        <path
            d="m173.946 426.546c-4.143 0-7.5 3.357-7.5 7.5 0 25.175 14.279 49.374 24.024 62.954h18.889c-.176-.278-.364-.55-.58-.809-6.412-7.675-27.333-34.838-27.333-62.145 0-4.142-3.358-7.5-7.5-7.5z"
            fill="#ff9c20"></path>
        <g fill="#423e4f">
            <path
                d="m287.928 225.981c-4.143 0-7.5 3.358-7.5 7.5 0 6.699-5.45 12.149-12.149 12.149-6.698 0-12.148-5.45-12.148-12.149 0-4.142-3.357-7.5-7.5-7.5s-7.5 3.358-7.5 7.5c0 6.699-5.45 12.149-12.149 12.149s-12.149-5.45-12.149-12.149c0-4.142-3.357-7.5-7.5-7.5s-7.5 3.358-7.5 7.5c0 14.97 12.179 27.149 27.149 27.149 7.725 0 14.701-3.248 19.649-8.444 4.948 5.196 11.924 8.444 19.648 8.444 14.971 0 27.149-12.179 27.149-27.149 0-4.142-3.357-7.5-7.5-7.5z">
            </path>
            <path
                d="m151.803 172.658c-4.143 0-7.5 3.358-7.5 7.5v19.7c0 4.143 3.357 7.5 7.5 7.5s7.5-3.357 7.5-7.5v-19.7c0-4.143-3.357-7.5-7.5-7.5z">
            </path>
            <path
                d="m344.962 172.658c-4.143 0-7.5 3.358-7.5 7.5v19.7c0 4.143 3.357 7.5 7.5 7.5s7.5-3.357 7.5-7.5v-19.7c0-4.143-3.358-7.5-7.5-7.5z">
            </path>
        </g>
        <g fill="#ff9c20">
            <path
                d="m315.553 434.046c0 27.31-20.921 54.471-27.333 62.145-.216.259-.405.531-.58.809h18.89c9.745-13.58 24.023-37.777 24.023-62.954 0-4.143-3.357-7.5-7.5-7.5s-7.5 3.358-7.5 7.5z">
            </path>
            <path
                d="m118.574 197.395c0-71.829 44.732-134.111 110.136-164.886-87.732 9.829-155.933 84.255-155.933 174.617 0 14.984 1.877 28.101 5.409 39.552 17.307 0 32.675-1.959 46.328-5.494-3.871-13.762-5.94-28.395-5.94-43.789z">
            </path>
        </g>
    </g>
</svg>